<svg width="21.000000" height="20.000000" viewBox="0 0 21 20" fill="none" xmlns="http://www.w3.org/2000/svg" xmlns:xlink="http://www.w3.org/1999/xlink">
	<desc>
			Created with Pixso.
	</desc>
	<defs/>
	<path id="Vector" d="M20.07 8.2L16.17 8.2L13.37 0.23C13.2 -0.25 12.68 -0.5 12.19 -0.33C11.71 -0.16 11.46 0.37 11.63 0.85L14.21 8.2L6.78 8.2L9.36 0.85C9.53 0.37 9.28 -0.16 8.8 -0.33C8.31 -0.5 7.79 -0.25 7.62 0.23L4.82 8.2L0.92 8.2C0.41 8.2 0 8.61 0 9.12C0 9.64 0.41 10.05 0.92 10.05L1.17 10.05L3.44 18.33C3.61 18.95 4.17 19.37 4.82 19.37L16.24 19.37C16.88 19.37 17.45 18.94 17.61 18.32L19.82 10.05L20.07 10.05C20.58 10.05 21 9.64 21 9.12C21 8.61 20.58 8.2 20.07 8.2ZM7.46 16.35C7.46 16.86 7.05 17.28 6.54 17.28C6.03 17.28 5.61 16.86 5.61 16.35L5.61 11.65C5.61 11.14 6.03 10.73 6.54 10.73C7.05 10.73 7.46 11.14 7.46 11.65L7.46 16.35ZM11.42 16.35C11.42 16.86 11.01 17.28 10.5 17.28C9.98 17.28 9.57 16.86 9.57 16.35L9.57 11.65C9.57 11.14 9.98 10.73 10.5 10.73C11.01 10.73 11.42 11.14 11.42 11.65L11.42 16.35ZM15.38 16.35C15.38 16.86 14.96 17.28 14.45 17.28C13.94 17.28 13.53 16.86 13.53 16.35L13.53 11.65C13.53 11.14 13.94 10.73 14.45 10.73C14.96 10.73 15.38 11.14 15.38 11.65L15.38 16.35Z" fill="#D58C51" fill-opacity="1.000000" fill-rule="nonzero"/>
</svg>
