<svg width="13.000000" height="13.000000" viewBox="0 0 13 13" fill="none" xmlns="http://www.w3.org/2000/svg" xmlns:xlink="http://www.w3.org/1999/xlink">
	<desc>
			Created with Pixso.
	</desc>
	<defs/>
	<path id="Vector" d="M6.7 6.07L12.12 11.49C12.27 11.64 12.27 11.89 12.12 12.04C12.04 12.11 11.94 12.15 11.84 12.15C11.75 12.15 11.65 12.11 11.57 12.04L6.11 6.58L0.66 12.04C0.58 12.11 0.48 12.15 0.38 12.15C0.28 12.15 0.19 12.11 0.11 12.04C-0.04 11.89 -0.04 11.64 0.11 11.49L5.53 6.07L0.11 0.65C-0.04 0.5 -0.04 0.26 0.11 0.11C0.26 -0.04 0.5 -0.04 0.65 0.11L6.11 5.57L11.58 0.11C11.73 -0.04 11.97 -0.04 12.12 0.11C12.27 0.26 12.27 0.5 12.12 0.65L6.7 6.07Z" fill="#FFFFFF" fill-opacity="1.000000" fill-rule="nonzero"/>
</svg>
